P3
# Created by Ben and Smita's Image Processor
3 3
255
105
18
222
84
18
227
61
18
231
114
17
219
97
18
224
84
18
227
128
16
216
114
17
219
105
18
222
