P3
# Created by Ben and Smita's Image Processor
3 3
255
78
0
166
64
0
169
55
0
172
64
0
169
47
0
174
34
0
177
55
0
172
34
0
177
11
0
181
