P3
# Created by Ben and Smita's Image Processor
3 3
255
54
54
54
52
52
52
51
51
51
52
52
52
49
49
49
47
47
47
51
51
51
47
47
47
42
42
42
