P3
# Created by Ben and Smita's Image Processor
3 3
255
128
128
128
114
114
114
105
105
105
114
114
114
97
97
97
84
84
84
105
105
105
84
84
84
61
61
61
