P3
# Created by Ben and Smita's Image Processor
3 3
255
178
66
255
164
67
255
155
68
255
164
67
255
147
68
255
134
68
255
155
68
255
134
68
255
111
68
255
