P3
# Created by Ben and Smita's Image Processor
3 3
255
216
216
216
219
219
219
222
222
222
219
219
219
224
224
224
227
227
227
222
222
222
227
227
227
231
231
231
