P3
# Created by Ben and Smita's Image Processor
3 3
255
61
18
231
84
18
227
105
18
222
84
18
227
97
18
224
114
17
219
105
18
222
114
17
219
128
16
216
