P3
# Created by Ben and Smita's Image Processor
3 3
255
16
16
16
17
17
17
18
18
18
17
17
17
18
18
18
18
18
18
18
18
18
18
18
18
18
18
18
