P3
# Created by Ben and Smita's Image Processor
3 3
255
120
120
120
116
116
116
115
115
115
116
116
116
113
113
113
109
109
109
115
115
115
109
109
109
103
103
103
